<svg width="24" height="24" viewBox="0 0 24 24" fill="none" xmlns="http://www.w3.org/2000/svg">
<path fill-rule="evenodd" clip-rule="evenodd" d="M12 24C18.6274 24 24 18.6274 24 12C24 5.37256 18.6274 0 12 0C5.37256 0 0 5.37256 0 12C0 18.6274 5.37256 24 12 24ZM10 8C10 9.10455 9.10449 10 8 10C6.89551 10 6 9.10455 6 8C6 6.89545 6.89551 6 8 6C9.10449 6 10 6.89545 10 8ZM18 8C18 9.10455 17.1045 10 16 10C14.8955 10 14 9.10455 14 8C14 6.89545 14.8955 6 16 6C17.1045 6 18 6.89545 18 8ZM18 16C18 17.1046 17.1045 18 16 18C14.8955 18 14 17.1046 14 16C14 14.8954 14.8955 14 16 14C17.1045 14 18 14.8954 18 16ZM10 16C10 17.1046 9.10449 18 8 18C6.89551 18 6 17.1046 6 16C6 14.8954 6.89551 14 8 14C9.10449 14 10 14.8954 10 16Z" fill="#1F2431"/>
</svg>
