<svg width="8" height="6" viewBox="0 0 8 6" fill="none" xmlns="http://www.w3.org/2000/svg">
<path d="M0.265381 1.14511C0.265381 0.521719 0.772634 0.0144653 1.39602 0.0144653C2.01941 0.0144653 2.52641 0.521719 2.52641 1.14511C2.52641 1.76849 2.01965 2.2755 1.39602 2.2755C0.772388 2.2755 0.265381 1.76849 0.265381 1.14511ZM6.74305 4.497C6.17343 5.06711 5.27899 5.34382 4.00913 5.34382C4.00619 5.34382 4.00349 5.34161 4.00005 5.34161C3.99661 5.34161 3.99391 5.34382 3.99047 5.34382C2.72062 5.34382 1.82642 5.06711 1.25656 4.497C1.15295 4.39339 1.15295 4.22521 1.25656 4.12111C1.36066 4.01749 1.52885 4.01749 1.63295 4.12111C2.09773 4.58637 2.86867 4.81201 3.99047 4.81201C3.99391 4.81201 3.99661 4.81398 4.00005 4.81398C4.00349 4.81398 4.00619 4.81201 4.00913 4.81201C5.13118 4.81201 5.90237 4.58613 6.36715 4.12111C6.47125 4.01749 6.63944 4.01749 6.74354 4.12111C6.84715 4.22521 6.84715 4.39364 6.74305 4.497ZM6.60826 2.2755C5.98536 2.2755 5.47786 1.76898 5.47786 1.14511C5.47786 0.521228 5.98487 0.0144653 6.60826 0.0144653C7.23164 0.0144653 7.73865 0.521719 7.73865 1.14511C7.73865 1.76849 7.23164 2.2755 6.60826 2.2755Z" fill="#1F2431"/>
</svg>
