<svg width="593" height="402" fill="none" xmlns="http://www.w3.org/2000/svg"><path d="M46.162 101.923h142.036l63.916 63.998h114.812l38.468-40.295h94.691" stroke="#EEF" stroke-width="2" stroke-linecap="round" stroke-linejoin="round"/><path d="M110.67 234.067h93.507L363.376 74.664h218.38" stroke="#EEF" stroke-width="2" stroke-linecap="round" stroke-linejoin="round"/><ellipse cx="222.523" cy="28.444" rx="28.407" ry="28.444" fill="url(#paint0_linear)"/><ellipse cx="94.691" cy="101.923" rx="3.551" ry="3.555" fill="#EEF"/><path d="M80.487 100.738l14.204-2.37v7.111l-14.204-2.371v-2.37z" fill="url(#paint1_linear)"/><path d="M177.545 112.589l36.693 36.74M217.788 152.884l9.469 9.482M401.251 235.845l36.693 36.74M441.495 276.14l9.469 9.481M415.455 140.938h104.752M525.533 140.938h13.391M544.471 140.938h27.816M79.895 218.364h60.366M145.587 218.364h13.391M164.525 218.364h27.815" stroke="#EEF" stroke-width="2" stroke-linecap="round" stroke-linejoin="round"/><ellipse cx="456.882" cy="125.626" rx="3.551" ry="3.555" fill="#EEF"/><path d="M442.679 124.441l14.203-2.37v7.11l-14.203-2.37v-2.37z" fill="url(#paint2_linear)"/><ellipse cx="543.287" cy="74.665" rx="3.551" ry="3.555" fill="#EEF"/><path d="M529.084 73.48l14.203-2.371v7.11l-14.203-2.37v-2.37z" fill="url(#paint3_linear)"/><path d="M62.732 304.584h133.751l89.364-89.479h117.18l49.121 49.184h98.833" stroke="#EEF" stroke-width="2" stroke-linecap="round" stroke-linejoin="round"/><ellipse cx="169.26" cy="304.584" rx="3.551" ry="3.555" fill="#EEF"/><path d="M155.056 303.399l14.204-2.371v7.111l-14.204-2.37v-2.37z" fill="url(#paint4_linear)"/><path d="M200.734 139.434s-19.897 41.572-.475 108.045c.145.497.32.983.475 1.469 14.732 44.147 170.905 32.058 197.941 17.053 0 0 29.568-66.371 2.573-128.883.01 0-109.519-48.697-200.514 2.316z" fill="#315EFB"/><g style="mix-blend-mode:soft-light"><mask id="a" maskUnits="userSpaceOnUse" x="191" y="116" width="222" height="164"><path d="M200.734 139.434s-19.897 41.572-.475 108.045c.145.497.32.983.475 1.469 14.732 44.147 170.905 32.058 197.941 17.053 0 0 29.568-66.371 2.573-128.883.01 0-109.519-48.697-200.514 2.316z" fill="#315EFB"/></mask><g mask="url(#a)"><path d="M193 160.5s-5.975 33.675 7.116 90.297c0 0 5.554 29.816 88.876 34.626 73.266 4.233 110.879-16.218 110.879-16.218S414.364 244.28 416 232.12c0 0-90.124 36.299-179 6.38-50.5-17-44-78-44-78z" fill="url(#paint5_linear)"/></g></g><path d="M410.056 225.41l.944-4.398s-18.573 3.555-35.225 2.22c-16.652-1.336-21.262-7.029-23.772-14.232 0 0-.723 16.05 22.217 18.311 23.239 2.302 35.836-1.901 35.836-1.901z" fill="#1642FA"/><path d="M414.218 221.223s5.165-14.478 1.436-36.784c0 0-14.267-8.056-40.611-5.698-26.344 2.358-28.545 21.168-23.534 35.108 5.547 15.388 40.528 12.844 62.709 7.374z" fill="#356BFF"/><circle cx="370" cy="203" r="14" fill="#fff"/><path d="M382.667 203c0 6.996-5.671 12.667-12.667 12.667-6.996 0-12.667-5.671-12.667-12.667 0 0 6.667 2.667 15.334-2.666 10-6.154 10 2.666 10 2.666z" fill="url(#paint6_linear)"/><path fill-rule="evenodd" clip-rule="evenodd" d="M365.655 200.909a2.616 2.616 0 002.607-2.626 2.617 2.617 0 00-2.607-2.626 2.616 2.616 0 00-2.606 2.626 2.616 2.616 0 002.606 2.626zM374.344 209.663a2.616 2.616 0 002.607-2.626 2.617 2.617 0 00-2.607-2.626 2.616 2.616 0 00-2.606 2.626 2.616 2.616 0 002.606 2.626zM374.278 196.533a2.684 2.684 0 00-2.673 2.694 2.683 2.683 0 002.673 2.693 2.683 2.683 0 002.673-2.693 2.684 2.684 0 00-2.673-2.694zM365.723 205.152a2.683 2.683 0 00-2.673 2.693 2.684 2.684 0 002.673 2.694 2.684 2.684 0 002.674-2.694 2.684 2.684 0 00-2.674-2.693z" fill="#315EFB"/><path d="M223.988 44.28c7.446-29.842 65.745-41.743 93.964-43.964 46.538-3.662 42.992 25.313 0 43.964-14.008 6.076-23.048 32.861-52.301 40.41-11.331 2.925-50.971-3.108-41.663-40.41z" fill="url(#paint7_linear)"/><circle r="3.553" transform="rotate(45.037 -77.257 640.285)" fill="#EEF"/><path d="M421.17 231.595l11.718 8.381-5.022 5.028-8.37-11.732 1.674-1.677z" fill="url(#paint8_linear)"/><path d="M1.923 247.815c-6.897-16.048 6.41-22.568 13.925-23.821 39.125 0 67.64 23.821 87.534 28.836 19.894 5.014 47.083 3.761 82.892 23.194 35.81 19.433 43.104 36.985 62.335 55.164 19.231 18.179 35.146 6.896 61.672 8.776 26.525 1.881 35.809 20.687 0 35.105-35.81 14.418-53.051.627-80.903 0-27.852-.627-64.324-31.343-78.913-52.03-14.589-20.687-37.136-38.239-66.977-41.373-29.84-3.135-72.945-13.792-81.565-33.851z" fill="url(#paint9_linear)"/><path d="M328.576 329.328l71.858 49.939L284.269 402l44.307-72.672z" fill="url(#paint10_linear)"/><path fill-rule="evenodd" clip-rule="evenodd" d="M522.533 309.966c.957-5.581 6.262-9.345 11.845-8.385 5.584.959 9.332 6.278 8.375 11.86-.956 5.581-6.261 9.345-11.845 8.385-5.583-.959-9.331-6.278-8.375-11.86zm9.004.706l-4.877-.838-.879 1.74 4.877.838.879-1.74zm7.049-1.955c.418.071.937.36 1.115.929.179.568.059.824-.255 1.492v.001c-.315.669-1.307 2.666-1.694 3.369-.386.702-.971 1.247-1.644 1.501l-.06.022c-.629.238-.894.337-1.723.195l-8.754-1.504.959-1.895 8.234 1.414 1.916-3.792-8.168-1.404.96-1.895 9.114 1.567zM462.543 335.445c5.078-7.865 15.592-10.14 23.462-5.046 7.871 5.094 10.118 15.628 5.04 23.493-5.078 7.866-15.592 10.14-23.463 5.046-7.87-5.094-10.117-15.627-5.039-23.493zm6.157 8.747l1.671.345-3.995 3.773 12.047 7.797 2.977-2.818-7.225-4.676 2.9-2.749 1.68.329 2.3-2.165-1.665-.319 5.168-4.885-4.798-3.105-7.045 6.636-1.702-.331-2.312 2.168h-.001z" fill="#315EFB"/><path d="M488.502 202.339c1.309-10.862 7.747-14.682 10.802-15.233 13.421 3.974 29.133-7.286 40.917-3.974 11.784 3.311 20.949 19.207 26.514 24.506 5.564 5.298 34.042 10.597 24.222 27.155s-24.877 0-48.118-4.636c-23.24-4.637-21.604 10.266-32.078 14.902-10.475 4.636-18.658-2.649-22.259-10.266-3.601-7.617-1.637-18.876 0-32.454z" fill="url(#paint11_linear)"/><path fill-rule="evenodd" clip-rule="evenodd" d="M158.527 378.377c-10.415-10.733-10.168-27.89.552-38.318 10.72-10.429 27.855-10.181 38.27.552 10.415 10.734 10.168 27.89-.552 38.319-10.721 10.429-27.855 10.181-38.27-.553z" fill="#fff"/><path fill-rule="evenodd" clip-rule="evenodd" d="M156.16 378.377c-10.414-10.732-10.168-27.89.552-38.318 10.72-10.429 27.856-10.18 38.27.552 10.413 10.733 10.168 27.89-.552 38.319-10.721 10.429-27.856 10.18-38.27-.553zm32.595-5.292l-19.889-3.504 13.264-3.323.001.001 3.703-13.185 2.921 20.011zm-26.372-27.178l21.911 5.591-3.78 13.094L167.332 368l-4.949-22.093z" fill="#315EFB"/><path fill-rule="evenodd" clip-rule="evenodd" d="M498.668 168.503c5.427-6.66 15.222-7.657 21.876-2.223 6.654 5.435 7.647 15.244 2.221 21.904-5.427 6.661-15.222 7.658-21.876 2.224-6.654-5.435-7.647-15.244-2.221-21.905z" fill="#fff"/><path fill-rule="evenodd" clip-rule="evenodd" d="M496.301 167.318c5.422-6.655 15.222-7.657 21.876-2.223 6.654 5.435 7.642 15.249 2.22 21.904-5.422 6.656-15.222 7.658-21.876 2.223-6.654-5.434-7.642-15.248-2.22-21.904zm5.175 18.275l.68-11.597 2.773 7.359-.001.001 7.76 1.242-11.212 2.995zm13.743-16.87l-1.735 12.891-7.713-1.293-2.815-7.307 12.263-4.291z" fill="#315EFB"/><path d="M469.31 171.847h9.469M484.106 181.328H459.25M122.506 170.662h15.979M151.505 180.143h-24.856" stroke="#28BC00" stroke-width="2" stroke-linecap="round" stroke-linejoin="round"/><path fill-rule="evenodd" clip-rule="evenodd" d="M106.755 66.31c-4.04-6.9-1.731-15.806 5.175-19.86s15.796-1.72 19.836 5.181c4.039 6.9 1.731 15.808-5.175 19.861-6.907 4.054-15.796 1.72-19.836-5.181zm18.58-6.756l-4.998 2.934c.148-.703.274-1.41.378-2.12.283-1.789.556-3.579.817-5.37.021-.147.054-.3.087-.453.093-.437.189-.885.058-1.239-.23-.645-.606-1.24-.993-1.853-.16-.25-.315-.503-.467-.759l-3.101 1.821-1.273-2.173-2.486 1.459 1.305 2.228-2.846 1.67 1.559 2.663 4.793-2.814c-.058.34-.117.657-.173.965-.072.393-.14.77-.205 1.155a441.869 441.869 0 00-.816 5.37c-.017.16-.05.329-.083.5-.08.412-.163.838-.037 1.177.231.646.608 1.243.99 1.847.153.243.307.487.453.737l3.076-1.806 1.289 2.202 2.588-1.52c-.241-.357-.48-.717-.717-1.078-.233-.355-.467-.71-.715-1.075l3.076-1.805-1.559-2.663z" fill="#315EFB"/><path d="M133.159 78.22l5.918 5.926" stroke="#28BC00" stroke-width="2" stroke-linecap="round" stroke-linejoin="round"/><path d="M430.842 62.22c0-17.976 14.573-32.591 32.55-32.591 17.977 0 32.55 14.615 32.55 32.591 0 17.977-14.573 32.592-32.55 32.592-17.977 0-32.55-14.615-32.55-32.592z" fill="#fff"/><path fill-rule="evenodd" clip-rule="evenodd" d="M462.208 33.184c-16.669 0-30.182 13.552-30.182 30.222 0 16.669 13.513 30.221 30.182 30.221 16.67 0 30.183-13.552 30.183-30.221 0-16.67-13.513-30.222-30.183-30.222zm7.026 18.974c4.117 1.42 7.128 3.548 6.536 7.508-.428 2.898-2.033 4.302-4.164 4.794 2.926 1.525 4.415 3.863 2.997 7.917-1.76 5.036-5.941 5.46-11.501 4.407l-1.35 5.415-3.261-.814 1.332-5.342c-.845-.21-1.708-.433-2.598-.675l-1.337 5.367-3.257-.813 1.35-5.425-.913-.237-.019-.006c-.459-.12-.923-.24-1.393-.358l-4.243-1.06 1.619-3.736s2.402.64 2.37.592c.923.229 1.333-.374 1.494-.776l2.132-8.56.221.055.016.004.108.027a2.705 2.705 0 00-.339-.108l1.521-6.11c.04-.694-.199-1.57-1.519-1.9.051-.034-2.368-.59-2.368-.59l.867-3.486 4.497 1.124-.004.017c.465.116.941.228 1.423.339l.659.15 1.337-5.36 3.258.813-1.309 5.256 1.027.236c.533.124 1.063.25 1.585.38l1.301-5.222 3.26.813-1.335 5.364zm-.914 17.968c-.924 3.72-6.739 2.182-9.4 1.479-.239-.064-.453-.12-.636-.166l1.791-7.187c.222.056.494.117.801.186 2.752.618 8.391 1.885 7.444 5.688zm-6.891-9.024c2.218.593 7.057 1.886 7.899-1.495.861-3.458-3.842-4.5-6.139-5.01-.258-.056-.486-.107-.672-.153l-1.623 6.518c.153.038.333.087.535.14zM83.656 161.552c-7.634 6.75-8.352 18.423-1.615 26.061 6.737 7.639 18.395 8.368 26.029 1.617 7.633-6.75 8.352-18.423 1.614-26.062-6.737-7.638-18.395-8.367-26.028-1.616zm10.88 5.844c2.46-1.017 4.698-1.262 6.027.791.974 1.501.806 2.793.029 3.881 1.956-.486 3.582-.018 4.57 2.413 1.228 3.018-.515 4.906-3.486 6.675l1.569 3.026-1.822.948-1.548-2.986a77.587 77.587 0 01-1.463.743l1.556 2.999-1.82.947-1.573-3.031-.516.262-.432.22-.36.184-2.37 1.233-.769-2.366.28-.141.457-.232c.314-.16.604-.312.588-.316.515-.269.46-.711.371-.96l-2.48-4.783.106-.056.086-.045a1.7 1.7 0 00-.2.088l-1.771-3.414c-.262-.334-.725-.638-1.463-.255.01-.036-1.322.689-1.322.689l-1.012-1.948 2.514-1.306.005.009a63.44 63.44 0 001.151-.618l-1.553-2.997 1.82-.947 1.524 2.937c.481-.262.966-.526 1.445-.776l-1.514-2.918 1.822-.947 1.555 2.997zm6.84 8.598c1.079 2.078-2.205 3.728-3.708 4.483l-.016.008c-.129.065-.244.123-.341.174l-2.084-4.016c.124-.064.272-.146.44-.238l.002-.002c1.51-.831 4.605-2.534 5.707-.409zm-6.8-1.342c1.254-.626 3.993-1.994 3.013-3.883-1.002-1.933-3.578-.505-4.835.192-.14.078-.266.147-.37.201l1.89 3.643c.085-.045.187-.096.301-.153z" fill="#315EFB"/><path d="M197.667 328.879l18.346-18.369M209.503 330.657l25.448-25.481M417.822 106.071l13.612-13.63M440.903 95.997l-22.489 22.518M136.118 70.516l13.02 13.037M450.964 311.695l8.285 8.296M435.577 308.732l20.121 20.147M519.023 291.547l4.735 4.741M507.187 290.362l8.285 8.296" stroke="#28BC00" stroke-width="2" stroke-linecap="round" stroke-linejoin="round"/><defs><linearGradient id="paint0_linear" x1="256.657" y1="79.596" x2="194.009" y2="-8.22" gradientUnits="userSpaceOnUse"><stop stop-color="#28BC00"/><stop offset="1" stop-color="#28BC00" stop-opacity="0"/></linearGradient><linearGradient id="paint1_linear" x1="88.181" y1="101.923" x2="76.344" y2="101.923" gradientUnits="userSpaceOnUse"><stop stop-color="#EEF"/><stop offset="1" stop-color="#EEF" stop-opacity="0"/></linearGradient><linearGradient id="paint2_linear" x1="450.372" y1="125.626" x2="438.536" y2="125.626" gradientUnits="userSpaceOnUse"><stop stop-color="#EEF"/><stop offset="1" stop-color="#EEF" stop-opacity="0"/></linearGradient><linearGradient id="paint3_linear" x1="536.777" y1="74.665" x2="524.941" y2="74.665" gradientUnits="userSpaceOnUse"><stop stop-color="#EEF"/><stop offset="1" stop-color="#EEF" stop-opacity="0"/></linearGradient><linearGradient id="paint4_linear" x1="162.75" y1="304.584" x2="150.913" y2="304.584" gradientUnits="userSpaceOnUse"><stop stop-color="#EEF"/><stop offset="1" stop-color="#EEF" stop-opacity="0"/></linearGradient><linearGradient id="paint5_linear" x1="425.323" y1="263.132" x2="129.425" y2="230.154" gradientUnits="userSpaceOnUse"><stop/><stop offset="1" stop-opacity="0"/></linearGradient><linearGradient id="paint6_linear" x1="383.716" y1="212.463" x2="350.255" y2="209.466" gradientUnits="userSpaceOnUse"><stop stop-color="#DADAFF"/><stop offset="1" stop-color="#EEF" stop-opacity="0"/></linearGradient><linearGradient id="paint7_linear" x1="356.882" y1="69.72" x2="186.679" y2="53.794" gradientUnits="userSpaceOnUse"><stop stop-color="#DADAFF"/><stop offset="1" stop-color="#EEF" stop-opacity="0"/></linearGradient><linearGradient id="paint8_linear" x1="425.774" y1="237.881" x2="417.393" y2="229.511" gradientUnits="userSpaceOnUse"><stop stop-color="#EEF"/><stop offset="1" stop-color="#EEF" stop-opacity="0"/></linearGradient><linearGradient id="paint9_linear" x1="347.615" y1="352.782" x2="-89.288" y2="295.497" gradientUnits="userSpaceOnUse"><stop stop-color="#DADAFF"/><stop offset="1" stop-color="#EEF" stop-opacity="0"/></linearGradient><linearGradient id="paint10_linear" x1="416.948" y1="401.584" x2="344.887" y2="285.267" gradientUnits="userSpaceOnUse"><stop stop-color="#28BC00"/><stop offset="1" stop-color="#28BC00" stop-opacity="0"/></linearGradient><linearGradient id="paint11_linear" x1="597.414" y1="234.803" x2="457.071" y2="220.339" gradientUnits="userSpaceOnUse"><stop stop-color="#DADAFF"/><stop offset="1" stop-color="#EEF" stop-opacity="0"/></linearGradient></defs></svg>